<svg width="93" height="40" viewBox="0 0 93 40" fill="none" xmlns="http://www.w3.org/2000/svg">
<path d="M8.93578 15.2675C8.89719 15.2773 8.81068 15.2917 8.67596 15.3111C8.60853 15.3209 8.54971 15.3281 8.49921 15.3329C8.4487 15.3378 8.40409 15.3401 8.36564 15.3401C8.29821 15.3401 8.22604 15.3329 8.14914 15.3183C8.0721 15.3039 8.03365 15.2773 8.03365 15.2385C8.03365 15.1804 8.10338 15.1392 8.24297 15.115C8.38242 15.0907 8.50523 15.0653 8.61111 15.0387C8.71685 15.0121 8.81068 14.9818 8.89245 14.9479C9.06088 14.8801 9.18843 14.7978 9.27494 14.7009C9.37608 14.5943 9.45298 14.541 9.50592 14.541C9.5636 14.541 9.63576 14.5968 9.72242 14.7081C9.8138 14.8147 9.85957 14.897 9.85957 14.9551C9.85957 15.0133 9.83073 15.0641 9.77292 15.1077C9.72486 15.1465 9.5372 15.1852 9.21009 15.2239C9.28699 15.3499 9.3339 15.4456 9.35083 15.5108C9.36762 15.5763 9.37235 15.6345 9.36518 15.6853C9.35801 15.7361 9.34466 15.7906 9.32544 15.8487C9.30621 15.9069 9.29904 15.9916 9.30392 16.103L9.97506 16.0449C10.0712 16.0449 10.1518 16.063 10.2168 16.0994C10.2818 16.1356 10.3261 16.1745 10.3502 16.2156C10.3743 16.2568 10.3743 16.2955 10.3502 16.3319C10.3261 16.3682 10.2733 16.3864 10.1916 16.3864C10.1722 16.3864 10.1518 16.3864 10.1302 16.3864C10.1085 16.3864 10.0857 16.3839 10.0616 16.3791C9.80649 16.3598 9.55398 16.3526 9.30392 16.3573L9.31827 17.389L9.32544 18.3842C9.32544 18.7863 9.2966 19.0696 9.23893 19.2341C9.18111 19.4037 9.13061 19.4885 9.08728 19.4885C9.0441 19.4885 9.00077 19.4327 8.95744 19.3214C8.92373 19.2341 8.9045 19.1241 8.89977 18.9908C8.89489 18.8576 8.89719 18.7015 8.90694 18.5223C8.91656 18.343 8.92731 18.1397 8.93937 17.9119C8.95142 17.6843 8.95744 17.4324 8.95744 17.1564C8.81785 17.3937 8.67954 17.6008 8.54253 17.7776C8.40538 17.9544 8.26707 18.0985 8.12748 18.2099C7.98789 18.3261 7.86651 18.4109 7.76307 18.4641C7.65949 18.5175 7.57412 18.5477 7.50684 18.5549C7.43941 18.5621 7.38776 18.5488 7.35175 18.5149C7.31559 18.4811 7.29752 18.435 7.29752 18.377C7.29752 18.3091 7.32033 18.2487 7.36609 18.1953C7.41186 18.1421 7.50928 18.0743 7.65848 17.9919C7.88932 17.866 8.07698 17.7474 8.22131 17.6359C8.36564 17.5246 8.47137 17.4229 8.53895 17.3308C8.60623 17.2388 8.67596 17.1286 8.74812 17.0002C8.82029 16.8719 8.89001 16.723 8.95744 16.5535C8.95744 16.5147 8.95744 16.4796 8.95744 16.448C8.95744 16.4167 8.955 16.3913 8.95027 16.3718C8.45947 16.4106 8.11313 16.4905 7.91099 16.6115C7.75704 16.6987 7.63194 16.723 7.53567 16.6842C7.43941 16.6455 7.39135 16.5705 7.39135 16.459C7.40096 16.4008 7.40584 16.3536 7.40584 16.3173C7.40584 16.2809 7.41301 16.2519 7.4275 16.2301C7.44199 16.2083 7.47312 16.1927 7.52133 16.1829C7.56939 16.1733 7.64643 16.166 7.75231 16.161L8.95027 16.1176C8.95027 16.0353 8.94898 15.9239 8.94668 15.7834C8.9441 15.6428 8.94051 15.471 8.93578 15.2675ZM9.59975 17.0256C9.67192 17.0256 9.77292 17.0572 9.9029 17.12C10.0423 17.1879 10.1578 17.2702 10.2492 17.3672C10.3455 17.4688 10.3936 17.5513 10.3936 17.6141C10.3936 17.6771 10.3719 17.7401 10.3287 17.803C10.2901 17.8611 10.2349 17.8901 10.1627 17.8901C10.0906 17.8901 10.0158 17.8491 9.93891 17.7666C9.90032 17.723 9.85828 17.671 9.81266 17.6105C9.76689 17.55 9.71754 17.4785 9.66474 17.3962C9.5636 17.2315 9.51309 17.1299 9.51309 17.091C9.51309 17.0474 9.54208 17.0256 9.59975 17.0256ZM11.44 15.9069C11.44 15.8439 11.4772 15.7967 11.5519 15.7652C11.6264 15.7337 11.6974 15.7179 11.7648 15.7179C11.8321 15.7179 11.8898 15.747 11.938 15.8052C11.9861 15.8632 12.0102 15.9431 12.0102 16.0449C12.0102 16.2919 11.9836 16.4734 11.9308 16.5897C11.9066 16.6431 11.8777 16.6987 11.8442 16.7568C11.8105 16.815 11.7696 16.878 11.7215 16.9457C11.6733 17.0087 11.6047 17.0899 11.5158 17.1891C11.4267 17.2884 11.3125 17.4083 11.173 17.5487C11.0671 17.6553 11.0142 17.7412 11.0142 17.8066C11.0142 17.8721 11.043 17.9241 11.1009 17.9628C11.1537 17.9967 11.2885 18.0137 11.505 18.0137C11.6107 18.0137 11.7191 18.01 11.8297 18.0028C11.9403 17.9955 12.0558 17.9872 12.1762 17.9774C12.4215 17.9532 12.5899 17.9241 12.6813 17.8901C12.7823 17.8563 12.8328 17.7957 12.8328 17.7086C12.8328 17.6166 12.7582 17.481 12.6091 17.3017C12.4599 17.1128 12.3397 16.9942 12.2483 16.9457C12.1713 16.9119 12.1268 16.8755 12.1147 16.8368C12.1027 16.7981 12.11 16.763 12.1364 16.7314C12.1628 16.6999 12.199 16.6733 12.2447 16.6515C12.2904 16.6297 12.335 16.6164 12.3782 16.6115C12.4744 16.6115 12.5779 16.6769 12.6885 16.8076C12.7991 16.9385 12.9242 17.0935 13.0638 17.2727C13.2032 17.447 13.2731 17.6008 13.2731 17.734C13.2731 17.8673 13.2322 17.9823 13.1504 18.079C13.0685 18.1808 12.8449 18.2559 12.4793 18.3043C12.2964 18.3286 12.1279 18.3468 11.974 18.3588C11.8201 18.3709 11.6757 18.377 11.541 18.377C11.4112 18.377 11.2872 18.3709 11.1694 18.3588C11.0515 18.3468 10.9396 18.3286 10.8339 18.3043C10.6268 18.2559 10.5235 18.1517 10.5235 17.9919C10.5235 17.9096 10.5596 17.7983 10.6317 17.6577C10.7086 17.5269 10.8529 17.3503 11.0647 17.1274C11.2812 16.8998 11.4231 16.7399 11.4905 16.6479C11.5674 16.5413 11.606 16.4444 11.606 16.3573C11.606 16.3137 11.5975 16.2701 11.5808 16.2265C11.5638 16.1829 11.5446 16.1418 11.5231 16.103C11.5014 16.0643 11.4821 16.028 11.4653 15.9939C11.4483 15.9601 11.44 15.9311 11.44 15.9069Z" fill="#BE1E2D"/>
<path d="M9.72958 23.1439C9.48898 23.517 9.24365 23.8438 8.99345 24.1247C8.86834 24.2653 8.73965 24.3997 8.60737 24.528C8.47509 24.6564 8.33909 24.7763 8.19964 24.8876C8.06004 24.9991 7.94455 25.0886 7.8533 25.1564C7.76177 25.2243 7.69692 25.2679 7.65847 25.2871C7.60539 25.3259 7.55245 25.3453 7.49965 25.3453C7.44657 25.3453 7.40095 25.3356 7.3625 25.3163C7.32391 25.2969 7.29148 25.2702 7.26508 25.2363C7.23854 25.2025 7.22534 25.1662 7.22534 25.1274C7.22534 25.045 7.30956 24.9481 7.47799 24.8368C8.05531 24.4589 8.53879 24.0521 8.9286 23.6162C9.31826 23.1803 9.58281 22.7807 9.72241 22.4175C9.86186 22.0543 9.93173 21.7515 9.93173 21.5093L9.92441 21.364C9.92441 21.2237 9.97505 21.1533 10.0761 21.1533C10.1818 21.1533 10.2624 21.1969 10.3178 21.2842C10.373 21.3713 10.4007 21.4585 10.4007 21.5457C10.4007 21.5941 10.3502 21.7563 10.2492 22.0324C10.201 22.1681 10.1458 22.3084 10.0832 22.4537C10.0207 22.599 9.95081 22.7492 9.87391 22.9042C10.6389 23.4662 11.2235 23.8802 11.6277 24.1466C11.8297 24.2822 12.0077 24.3971 12.1617 24.4916C12.3156 24.586 12.4454 24.6623 12.5515 24.7205C12.7727 24.832 13.0061 24.9265 13.2514 25.0039C13.3138 25.0232 13.3453 25.0547 13.3453 25.0983C13.3453 25.137 13.2682 25.2072 13.1143 25.3089C12.9602 25.4107 12.8256 25.4616 12.7101 25.4616C12.6139 25.4616 12.4912 25.3986 12.3421 25.2726C12.0726 25.0255 11.8272 24.804 11.606 24.6079C11.3846 24.4117 11.1826 24.2386 10.9998 24.0884C10.8169 23.9383 10.6209 23.7845 10.4116 23.6271C10.2023 23.4698 9.97505 23.3087 9.72958 23.1439Z" fill="#BE1E2D"/>
<path d="M79.8541 16.9435C79.8493 16.3962 79.8421 15.9434 79.8325 15.585L79.8036 14.8149C79.8036 14.563 79.8587 14.4371 79.9695 14.4371C79.9985 14.4371 80.0297 14.4479 80.0633 14.4697C80.0969 14.4915 80.1295 14.5206 80.1609 14.557C80.1921 14.5932 80.2185 14.6332 80.2402 14.6768C80.2619 14.7204 80.2728 14.7639 80.2728 14.8075C80.2728 14.8221 80.2679 14.8488 80.2581 14.8875C80.2101 15.0376 80.1861 15.706 80.1861 16.8926C80.316 16.878 80.4495 16.86 80.5867 16.8382C80.7237 16.8164 80.8667 16.7885 81.0159 16.7545C81.0304 16.1105 81.0377 15.614 81.0377 15.2652C81.0377 14.9118 81.0316 14.643 81.0197 14.4589C81.0076 14.2749 81.0016 14.1755 81.0016 14.1609C81.0016 13.9769 81.022 13.8607 81.063 13.8123C81.1037 13.7639 81.1459 13.7396 81.1892 13.7396C81.3287 13.7396 81.3984 13.9769 81.3984 14.4515L81.3769 15.3088C81.3671 15.6043 81.36 15.9894 81.3551 16.464C81.3504 16.9387 81.3479 17.5077 81.3479 18.1712C81.3479 18.5538 81.2903 18.7452 81.1748 18.7452C81.1267 18.7452 81.0785 18.7161 81.0304 18.6581C80.9824 18.6046 80.9583 18.52 80.9583 18.4037C80.9583 18.3457 80.9618 18.2015 80.9692 17.9715C80.9763 17.7416 80.9895 17.4206 81.0088 17.0089C80.6624 17.0913 80.3544 17.1699 80.0851 17.245C79.8155 17.3201 79.5798 17.3964 79.3778 17.4738C79.3247 17.4933 79.2742 17.5028 79.2263 17.5028C79.1107 17.5028 79.053 17.4569 79.053 17.3649C79.053 17.3357 79.0613 17.3031 79.0783 17.2668C79.0952 17.2304 79.1167 17.1953 79.1433 17.1614C79.1697 17.1276 79.1985 17.0961 79.2298 17.0669C79.261 17.0379 79.2912 17.0161 79.3201 17.0017C79.3488 16.9871 79.3873 16.9774 79.4355 16.9725C79.4836 16.9677 79.5331 16.9641 79.5835 16.9616C79.6341 16.9592 79.6846 16.9569 79.7351 16.9544C79.7856 16.952 79.8252 16.9484 79.8541 16.9435ZM82.6037 15.4397C82.4257 15.8029 82.2452 16.0984 82.0624 16.3259C81.8796 16.5536 81.74 16.6675 81.6438 16.6675C81.591 16.6675 81.5646 16.642 81.5646 16.5911C81.5646 16.5402 81.5885 16.4858 81.6366 16.4277C81.9252 16.0645 82.1658 15.6552 82.3582 15.1999C82.5508 14.7349 82.6589 14.328 82.683 13.9794C82.6926 13.8147 82.7252 13.7324 82.7806 13.7324C82.8357 13.7324 82.9188 13.8003 83.0295 13.9358C83.145 14.0763 83.2027 14.1926 83.2027 14.2844C83.2027 14.3815 83.1569 14.4782 83.0655 14.5751C82.9741 14.6768 82.873 14.8488 82.7625 15.0909C82.8443 15.0958 82.9693 15.097 83.1378 15.0945C83.3061 15.0922 83.5203 15.0886 83.78 15.0837C84.2899 15.0691 84.5834 15.0619 84.6605 15.0619C84.7422 15.0619 84.8167 15.0861 84.8843 15.1345C84.9516 15.1829 84.9853 15.2265 84.9853 15.2652C84.9853 15.3041 84.9636 15.35 84.9203 15.4033C84.877 15.4566 84.824 15.4832 84.7615 15.4832C84.7038 15.4832 84.6232 15.4699 84.5197 15.4433C84.4163 15.4167 84.2972 15.401 84.1625 15.3961C84.0711 16.1274 83.9074 16.7207 83.6718 17.176C84.2346 17.6071 84.7302 17.9485 85.1584 18.2002C85.2642 18.2634 85.3173 18.3263 85.3173 18.3892C85.3173 18.4521 85.2402 18.5054 85.0863 18.549C84.9322 18.5974 84.8108 18.6204 84.7219 18.6181C84.6328 18.6156 84.5474 18.5563 84.4656 18.44C84.2154 18.0768 83.9028 17.7281 83.5275 17.3939C83.2916 17.6845 83.0079 17.9292 82.6759 18.1276C82.3439 18.3311 82.0793 18.4328 81.8819 18.4328C81.7568 18.4328 81.675 18.4087 81.6366 18.3601C81.5981 18.3117 81.5789 18.2585 81.5789 18.2002C81.5789 18.1374 81.6017 18.0927 81.6475 18.0659C81.6931 18.0394 81.7666 18.0139 81.8676 17.9897C82.5026 17.8347 82.9717 17.5682 83.2748 17.1904C83.116 17.0597 82.8274 16.9047 82.4089 16.7255C82.3607 16.7062 82.315 16.6722 82.2717 16.6238C82.2284 16.5755 82.2067 16.5174 82.2067 16.4495C82.2067 16.3429 82.2668 16.2896 82.3872 16.2896C82.469 16.2896 82.529 16.2995 82.5677 16.3187C82.6156 16.3382 82.7034 16.4023 82.8311 16.5112C82.9585 16.6202 83.1545 16.779 83.4192 16.9871C83.6646 16.5561 83.7728 16.0209 83.7438 15.3815C83.6141 15.3767 83.454 15.3792 83.2641 15.3887C83.0738 15.3985 82.8538 15.4154 82.6037 15.4397Z" fill="#BE1E2D"/>
<path d="M83.6001 22.8603C83.6146 22.7489 83.6302 22.6581 83.647 22.5877C83.6638 22.5177 83.6819 22.4631 83.7011 22.4244C83.7203 22.3857 83.7433 22.359 83.7697 22.3444C83.7961 22.3299 83.8285 22.3226 83.8672 22.3226C84.0067 22.3226 84.0764 22.3688 84.0764 22.4606C84.0764 22.4995 84.0595 22.5359 84.0259 22.5697C83.9249 22.6714 83.8695 22.7633 83.8599 22.8457C83.9994 22.8312 84.0992 22.8239 84.1595 22.8239C84.2196 22.8239 84.2737 22.8385 84.3218 22.8675C84.3988 22.9063 84.412 22.9536 84.3615 23.0092C84.311 23.0649 84.1774 23.0926 83.9609 23.0926L83.4486 23.0854C83.2368 23.0757 83.0156 23.0757 82.7846 23.0854C82.799 23.3906 82.9579 23.8483 83.2609 24.4585C83.3955 24.1969 83.4822 23.9911 83.5208 23.8411C83.5592 23.7005 83.6061 23.6303 83.6615 23.6303C83.7167 23.6303 83.7878 23.6812 83.8744 23.7829C83.9657 23.8798 84.0114 23.9524 84.0114 24.0008C84.0114 24.0493 83.9705 24.1051 83.8888 24.1679C83.8503 24.2018 83.813 24.2333 83.7769 24.2623C83.7408 24.2914 83.7084 24.323 83.6796 24.3568C83.6555 24.3907 83.6205 24.4367 83.5749 24.4949C83.5291 24.5529 83.475 24.6282 83.4125 24.72C83.4703 24.8122 83.5519 24.9139 83.6578 25.0252C83.7637 25.1367 83.8936 25.2553 84.0476 25.3812C84.3507 25.6282 84.7018 25.7856 85.1012 25.8533C85.2167 25.8778 85.2744 25.9068 85.2744 25.9406C85.2744 25.9793 85.2022 26.0423 85.0579 26.1295C84.9232 26.2215 84.7956 26.2676 84.6754 26.2676C84.4685 26.2676 84.2183 26.1197 83.9249 25.8243C83.7757 25.6743 83.6434 25.5301 83.5279 25.392C83.4125 25.254 83.3137 25.1172 83.2321 24.9816C83.03 25.2384 82.8905 25.3666 82.8136 25.3666C82.7942 25.3666 82.7846 25.3497 82.7846 25.3158C82.7846 25.2771 82.8208 25.2094 82.8928 25.1124C82.9651 25.0155 83.0348 24.9017 83.1023 24.7709C82.7798 24.1849 82.5706 23.6231 82.4743 23.0854C81.9017 23.1 81.5049 23.1218 81.2835 23.1508C81.168 23.1654 81.0742 23.1861 81.0022 23.2125C80.9299 23.2392 80.8722 23.2756 80.8289 23.3216C80.7855 23.3676 80.7531 23.4281 80.7315 23.5032C80.7098 23.5783 80.6966 23.6692 80.6917 23.7756C80.6725 24.0129 80.6521 24.2187 80.6305 24.3932C80.6088 24.5675 80.581 24.7104 80.5474 24.8217C80.4944 25.0301 80.3815 25.265 80.2082 25.5265C80.088 25.7154 79.9616 25.8632 79.8293 25.9696C79.6969 26.0761 79.5767 26.15 79.4685 26.1912C79.3603 26.2323 79.2711 26.2432 79.2015 26.2239C79.1316 26.2044 79.0969 26.1585 79.0969 26.0859C79.0969 26.0278 79.1173 25.978 79.1582 25.937C79.1991 25.8958 79.2869 25.8414 79.4216 25.7735C79.6671 25.6525 79.8702 25.4829 80.0315 25.265C80.1926 25.047 80.2949 24.7976 80.3382 24.5167C80.1361 24.536 79.9893 24.5615 79.8979 24.5929C79.8065 24.6244 79.744 24.6669 79.7103 24.72C79.6765 24.7637 79.6453 24.8702 79.6166 25.0398C79.5923 25.1948 79.5394 25.2722 79.4576 25.2722C79.3615 25.2722 79.3133 25.1948 79.3133 25.0398C79.3133 24.9962 79.3206 24.9235 79.3351 24.8217C79.3494 24.72 79.3566 24.6329 79.3566 24.5603C79.3566 24.4877 79.3517 24.4367 79.3423 24.4076C79.3325 24.3786 79.3278 24.352 79.3278 24.3278C79.3278 24.2405 79.3735 24.1969 79.4649 24.1969C79.5612 24.1969 79.6237 24.2213 79.6526 24.2696C79.6861 24.3132 79.7464 24.335 79.8329 24.335C79.9243 24.335 80.1046 24.3206 80.3742 24.2914C80.3838 24.18 80.3923 24.0698 80.3995 23.9609C80.4068 23.8519 80.4102 23.7466 80.4102 23.6448C80.1506 23.6448 79.9531 23.6861 79.8186 23.7684C79.5732 23.9331 79.4504 23.9331 79.4504 23.7684C79.4504 23.7248 79.46 23.674 79.4794 23.6158C79.5034 23.5431 79.5154 23.4803 79.5154 23.4268C79.5154 23.3737 79.5034 23.2937 79.4794 23.1871C79.46 23.0807 79.4504 23.0056 79.4504 22.9619C79.4504 22.9183 79.4722 22.8965 79.5154 22.8965C79.5539 22.8965 79.6166 22.916 79.7031 22.9547C79.7896 22.9936 79.8209 23.071 79.7969 23.1871C79.792 23.2115 79.7884 23.2333 79.7862 23.2525C79.7836 23.272 79.7824 23.2914 79.7824 23.3107C79.7824 23.4076 79.816 23.456 79.8834 23.456C79.9026 23.456 79.9557 23.4487 80.0422 23.4342C80.1289 23.4196 80.249 23.4245 80.4031 23.4487C80.4031 23.3422 80.3982 23.2525 80.3887 23.1799C80.379 23.1072 80.3742 23.0564 80.3742 23.0274C80.3742 22.9304 80.4247 22.8821 80.5259 22.8821C80.5402 22.8821 80.5715 22.8857 80.6197 22.8929C80.6676 22.9001 80.7241 22.9075 80.7893 22.9147C80.8541 22.9219 80.9263 22.9281 81.0056 22.9329C81.0851 22.9378 81.1656 22.9401 81.2475 22.9401L82.4455 22.8821C82.431 22.761 82.4238 22.6594 82.4238 22.5769C82.4238 22.4995 82.4478 22.4534 82.496 22.4388C82.544 22.4244 82.5826 22.417 82.6115 22.417C82.7364 22.417 82.7942 22.5672 82.7846 22.8675C82.8521 22.8627 82.9531 22.8603 83.0878 22.8603C83.2224 22.8603 83.3932 22.8603 83.6001 22.8603ZM81.0309 22.0974C81.0358 22.1363 81.0382 22.1713 81.0382 22.2027C81.0382 22.2343 81.0382 22.2622 81.0382 22.2863C81.0382 22.5236 80.9996 22.6423 80.9227 22.6423C80.8457 22.6423 80.7939 22.6012 80.7675 22.5188C80.7411 22.4365 80.7279 22.3034 80.7279 22.1192C80.6315 22.1241 80.5186 22.1338 80.3887 22.1482C80.2587 22.1628 80.1144 22.1871 79.9557 22.2209C79.845 22.2404 79.7451 22.2499 79.6562 22.2499C79.5671 22.2499 79.5227 22.2283 79.5227 22.1846C79.5227 22.1363 79.5732 22.0708 79.6742 21.9885C79.7752 21.9013 79.8714 21.8577 79.9629 21.8577C79.9869 21.8577 80.023 21.8626 80.0711 21.8722C80.2011 21.9159 80.4176 21.9303 80.7207 21.9159C80.7207 21.8431 80.7121 21.7814 80.6955 21.7306C80.6785 21.6797 80.6604 21.6336 80.6412 21.5925C80.622 21.5515 80.6039 21.5162 80.5871 21.4872C80.5702 21.458 80.5619 21.429 80.5619 21.4C80.5619 21.274 80.6437 21.2111 80.8072 21.2111C81.0094 21.2111 81.1104 21.2789 81.1104 21.4146C81.1104 21.4485 81.0946 21.5079 81.0634 21.5925C81.032 21.6773 81.0165 21.7778 81.0165 21.894C81.156 21.8844 81.2799 21.8734 81.3881 21.8613C81.4964 21.8493 81.5841 21.8431 81.6515 21.8431C81.6997 21.8431 81.7322 21.8577 81.7491 21.8867C81.7659 21.9159 81.7634 21.946 81.7419 21.9775C81.7201 22.0092 81.6828 22.0369 81.63 22.0611C81.5769 22.0854 81.5072 22.0926 81.4207 22.0828L81.0309 22.0974ZM81.998 23.6448C81.9884 23.7223 81.9835 23.7974 81.9835 23.8701C81.9835 23.9427 81.9859 24.0129 81.9908 24.0808C82.2842 24.0662 82.431 24.1269 82.431 24.2623C82.431 24.2722 82.4285 24.2818 82.4238 24.2914C82.4189 24.3012 82.4131 24.3168 82.4057 24.3386C82.3986 24.3604 82.3912 24.3907 82.3841 24.4294C82.3769 24.4683 82.3733 24.5239 82.3733 24.5966C82.3636 24.8243 82.2435 24.9332 82.0125 24.9235C82.0027 25.0011 81.9933 25.0773 81.9835 25.1523C81.9739 25.2275 81.9666 25.3038 81.962 25.3812C82.0677 25.3812 82.1663 25.392 82.2578 25.4139C82.3491 25.4357 82.4263 25.4465 82.4888 25.4465L82.6331 25.4393C82.681 25.4393 82.7052 25.4539 82.7052 25.4829C82.7052 25.5072 82.6691 25.5555 82.597 25.6282C82.5248 25.7008 82.4526 25.7372 82.3805 25.7372C82.3564 25.7372 82.3215 25.7299 82.2759 25.7154C82.23 25.7008 82.176 25.6852 82.1135 25.6682C82.0509 25.6513 81.9824 25.6354 81.9078 25.621C81.8332 25.6064 81.7551 25.5992 81.6733 25.5992C81.5096 25.5992 81.3604 25.6428 81.2259 25.7299C81.096 25.8123 81.0008 25.8533 80.9408 25.8533C80.8805 25.8533 80.8336 25.8414 80.8 25.8171C80.7712 25.7881 80.7567 25.7589 80.7567 25.7299C80.7567 25.7008 80.7735 25.6525 80.8072 25.5846C80.8602 25.4927 80.8986 25.294 80.9227 24.9888C80.9468 24.6838 80.9589 24.2479 80.9589 23.6812C80.9589 23.5939 80.966 23.5334 80.9804 23.4995C80.9949 23.4657 81.0188 23.4487 81.0527 23.4487C81.0718 23.4487 81.0923 23.4499 81.1139 23.4523C81.1356 23.4549 81.1609 23.4585 81.1897 23.4632C81.2185 23.4632 81.2594 23.4645 81.3124 23.4669C81.3653 23.4693 81.4218 23.4705 81.4819 23.4705C81.5422 23.4705 81.6048 23.4693 81.6696 23.4669C81.7346 23.4645 81.7959 23.4585 81.8537 23.4487C81.9115 23.4439 81.9583 23.4391 81.9944 23.4342C82.0306 23.4294 82.063 23.4268 82.0918 23.4268C82.1207 23.4268 82.1508 23.4294 82.1821 23.4342C82.2133 23.4391 82.2529 23.4463 82.3011 23.456C82.3733 23.4705 82.4176 23.49 82.4346 23.5141C82.4515 23.5383 82.4515 23.5613 82.4346 23.5831C82.4176 23.6049 82.3901 23.6231 82.3516 23.6376C82.3131 23.6521 82.277 23.6594 82.2435 23.6594L81.998 23.6448ZM81.7093 24.9017C81.5362 24.9114 81.3557 24.9624 81.168 25.0542C81.1537 25.1754 81.1465 25.2699 81.1465 25.3376C81.1465 25.4055 81.1632 25.4393 81.197 25.4393C81.2355 25.4393 81.286 25.4309 81.3485 25.4139C81.4111 25.397 81.529 25.3861 81.702 25.3812C81.7167 25.2795 81.7238 25.1948 81.7238 25.1269C81.7238 25.0591 81.719 24.984 81.7093 24.9017ZM81.1897 24.8C81.4352 24.7418 81.6274 24.7128 81.7672 24.7128C81.9066 24.7128 81.998 24.7031 82.0413 24.6838C82.0894 24.6644 82.1135 24.6087 82.1135 24.5167C82.1135 24.4294 82.0954 24.3653 82.0593 24.3242C82.0233 24.283 81.962 24.2623 81.8753 24.2623C81.6733 24.2623 81.4543 24.2987 81.2185 24.3714C81.2137 24.4731 81.2089 24.5603 81.2042 24.6329C81.1993 24.7056 81.1944 24.7613 81.1897 24.8ZM81.7167 24.0952C81.7261 24.0082 81.731 23.9355 81.731 23.8773C81.731 23.8192 81.7212 23.7418 81.702 23.6448C81.4903 23.6594 81.358 23.6958 81.3052 23.7538C81.2619 23.8071 81.2355 23.9331 81.2259 24.1316C81.3459 24.122 81.4471 24.1147 81.529 24.1098C81.6108 24.1051 81.6733 24.1002 81.7167 24.0952ZM83.3258 22.0029C83.3017 22.1919 83.2681 22.3335 83.2248 22.428C83.1815 22.5224 83.1383 22.5697 83.095 22.5697C83.0518 22.5697 83.0203 22.5479 83.0011 22.5042C82.977 22.4559 82.9651 22.4098 82.9651 22.3662C82.9651 22.3421 82.9687 22.2971 82.9759 22.2319C82.9832 22.1664 82.9964 22.0828 83.0156 21.9811C82.8856 21.9811 82.7568 21.9873 82.6294 21.9993C82.502 22.0115 82.4069 22.0175 82.3445 22.0175C82.2435 22.0272 82.1783 22.0187 82.1496 21.9921C82.1207 21.9655 82.1207 21.9352 82.1496 21.9013C82.1783 21.8675 82.2314 21.8347 82.3083 21.8032C82.3852 21.7717 82.479 21.756 82.5898 21.756L83.0445 21.7704C83.0492 21.6978 83.0518 21.641 83.0518 21.5997C83.0518 21.5587 83.0518 21.5271 83.0518 21.5053C83.0518 21.4836 83.0503 21.4665 83.048 21.4544C83.0456 21.4424 83.0445 21.429 83.0445 21.4146C83.0445 21.2547 83.1094 21.1748 83.2393 21.1748C83.3114 21.1748 83.3861 21.1966 83.463 21.2401C83.5398 21.2837 83.5786 21.3395 83.5786 21.4072C83.5786 21.4267 83.5688 21.4496 83.5496 21.4762C83.5304 21.5029 83.5087 21.532 83.4848 21.5635C83.4605 21.5949 83.4377 21.6289 83.4162 21.6651C83.3944 21.7015 83.3789 21.7414 83.3691 21.785C83.5519 21.785 83.7035 21.7802 83.8239 21.7704C83.9441 21.7609 84.0404 21.7524 84.1126 21.745C84.1847 21.7378 84.2352 21.7355 84.2641 21.7378C84.2929 21.7402 84.3074 21.7535 84.3074 21.7778C84.3074 21.8311 84.2786 21.9037 84.2208 21.9957C84.1631 22.0828 84.0764 22.1264 83.9609 22.1264C83.9177 22.1264 83.8334 22.1084 83.7084 22.072C83.5832 22.0357 83.4558 22.0128 83.3258 22.0029Z" fill="#BE1E2D"/>
<path d="M32.2428 10.9183C32.0648 10.3148 31.9431 9.9185 31.8769 9.72865C31.8101 9.53881 31.777 9.37694 31.777 9.24238C31.777 8.79608 31.998 8.57227 32.4427 8.57227C32.5532 8.57227 32.6921 8.60091 32.8582 8.6562C33.025 8.71215 33.1798 8.77943 33.3247 8.85737C33.4683 8.93597 33.596 9.03056 33.7072 9.14247C33.8183 9.25437 33.8739 9.36562 33.8739 9.47753C33.8739 9.70068 33.8124 9.96313 33.6906 10.2649C33.5682 10.566 33.4961 10.7958 33.4742 10.9517C33.8958 10.9743 34.3894 10.985 34.9558 10.985C35.5216 10.985 36.1588 10.985 36.8694 10.985H41.1302C41.6622 10.963 42.0671 11.0136 42.345 11.1362C42.6223 11.2587 42.7778 11.404 42.8109 11.5711C42.844 11.739 42.7441 11.9015 42.5111 12.0574C42.2782 12.214 41.9063 12.3032 41.3962 12.3252L37.4352 12.124C36.5915 12.0801 35.8207 12.0461 35.1219 12.0241C34.4231 12.0021 33.7846 11.9901 33.2082 11.9901C32.6306 11.9901 31.9709 11.9961 31.2278 12.0068C30.484 12.0188 29.6463 12.0354 28.7146 12.0574C26.8724 12.102 25.7853 12.136 25.4524 12.158C25.1414 12.2026 24.892 12.3085 24.7034 12.4764C24.5148 12.6436 24.4208 12.94 24.4208 13.3643L24.4539 17.4856C24.4539 20.2114 24.2878 22.3104 23.955 23.7852C23.6222 25.2819 23.0776 26.5216 22.3239 27.5041C21.9461 27.9957 21.6079 28.4147 21.3088 28.7611C21.0091 29.1075 20.7371 29.3806 20.493 29.5818C20.0271 29.9841 19.5778 30.1846 19.1451 30.1846C18.7123 30.1846 18.396 30.0734 18.1962 29.8495C17.9963 29.6271 17.8971 29.3972 17.8971 29.1628C17.8971 28.9283 18.0963 28.6658 18.4959 28.3754C19.1391 27.9065 19.683 27.4935 20.127 27.1358C20.5704 26.7787 20.9032 26.477 21.1255 26.2312C21.547 25.7402 21.9791 24.9356 22.4238 23.8185C22.8671 22.6794 23.0895 20.8256 23.0895 18.2563C23.0895 17.6755 23.0729 17.1173 23.0392 16.5811C23.0061 16.0448 22.9671 15.5199 22.9227 15.0057L22.6236 12.4591C22.6236 11.9015 22.8228 11.4712 23.2225 11.1695C23.6222 10.8677 24.1542 10.7505 24.8198 10.8178C25.4637 10.8624 25.9963 10.901 26.4178 10.935C26.8394 10.9683 27.1384 10.985 27.3164 10.985L32.2428 10.9183ZM33.2082 15.6092C32.3202 15.6538 31.5546 15.7044 30.9115 15.7597C30.2676 15.8157 29.735 15.889 29.3135 15.9775C28.9363 16.0448 28.5757 16.0395 28.2316 15.9609C27.8875 15.883 27.7161 15.6878 27.7161 15.3747C27.7161 15.2854 27.7657 15.1902 27.8657 15.0896C27.9656 14.989 28.0873 14.9004 28.2316 14.8218C28.3758 14.7439 28.526 14.6766 28.6815 14.6207C28.8364 14.5654 28.9694 14.5367 29.0805 14.5367C29.3247 14.5367 29.7515 14.5534 30.3623 14.5873C30.9724 14.6207 31.91 14.6373 33.1745 14.6373C33.1302 14.191 33.1963 13.8053 33.3743 13.4816C33.5517 13.1579 33.774 12.9953 34.04 12.9953C34.6613 12.9953 34.9498 13.5429 34.9055 14.6373C37.901 14.5707 39.5871 14.604 39.9649 14.7379C40.3646 14.8718 40.5637 15.2068 40.5637 15.7431C40.5637 15.9669 40.4976 16.5251 40.3646 17.4184L43.1933 17.4523C45.1242 17.497 46.134 17.5642 46.2226 17.6528C46.3331 17.7654 46.3887 17.8767 46.3887 17.9879C46.3887 18.1005 46.1445 18.3683 45.6569 18.7926C45.191 19.1942 44.7464 19.3954 44.3255 19.3954C44.1919 19.3954 43.9927 19.3568 43.726 19.2782C43.46 19.2002 43.149 19.111 42.7943 19.0104C42.439 18.9098 42.0393 18.8092 41.596 18.7086C41.152 18.6081 40.6974 18.5468 40.2309 18.5241C40.2091 18.658 40.1866 18.8319 40.1647 19.0437C40.1422 19.2562 40.1197 19.5186 40.0979 19.8311C40.0754 21.0154 39.5096 21.6069 38.4006 21.6069L34.8387 21.7408L34.8724 23.6173C35.0273 23.7292 35.2383 23.8684 35.505 24.0363C35.771 24.2035 36.0926 24.4107 36.4698 24.6564C38.001 23.8071 39.1106 23.0371 39.7988 22.3443C39.9318 22.1878 40.1197 22.0925 40.3646 22.0592C40.6081 22.0259 40.8469 22.0486 41.0799 22.1265C41.3128 22.2051 41.5179 22.333 41.6959 22.5115C41.8732 22.6907 41.9619 22.9139 41.9619 23.1817C41.9619 23.6733 41.6734 23.975 41.0964 24.0862C40.2977 24.2428 39.5765 24.4107 38.9333 24.5892C38.2895 24.7684 37.7125 24.9469 37.2023 25.1254C38.2226 25.6616 39.0663 26.1026 39.732 26.449C40.3976 26.7954 40.8972 27.0465 41.2301 27.203C41.8957 27.5161 42.7275 27.8512 43.726 28.2082C44.0364 28.3201 44.1919 28.4593 44.1919 28.6265C44.1919 28.7944 43.8703 29.0235 43.2271 29.314C42.6051 29.5818 42.1168 29.7156 41.7621 29.7156C41.4074 29.7156 40.9852 29.5038 40.4976 29.0788C38.4112 27.225 36.5366 25.7282 34.8724 24.5892V29.4812C34.8943 30.0174 34.8056 30.475 34.6058 30.8547C34.4728 31.1451 34.3285 31.3243 34.173 31.3909C34.0175 31.4582 33.8739 31.4356 33.7409 31.3243C33.6073 31.2124 33.4961 31.0339 33.4074 30.7881C33.3187 30.5416 33.2744 30.2519 33.2744 29.9168V27.3702C32.4089 27.638 31.4441 27.9731 30.3788 28.3754C29.2691 28.8004 28.5366 29.1128 28.1819 29.314C27.8041 29.5145 27.4382 29.6151 27.0835 29.6151C26.351 29.6151 25.9851 29.2021 25.9851 28.3754C25.9851 28.1523 26.0519 28.007 26.1849 27.9398C26.3179 27.8951 27.0723 27.7506 28.448 27.5041C29.1355 27.3929 29.8792 27.253 30.6786 27.0851C31.4772 26.9179 32.3427 26.7334 33.2744 26.5322V21.8081L28.3487 22.1765C27.6824 22.1765 27.3495 22.0426 27.3495 21.7748C27.3495 21.5963 27.5712 21.3505 28.0152 21.0374C28.4592 20.725 28.9025 20.5685 29.3472 20.5685L33.2744 20.7023L33.2413 18.658C30.046 18.8146 27.8597 19.0717 26.6839 19.4287C26.4178 19.5186 26.1737 19.5633 25.952 19.5633C25.508 19.5633 25.2863 19.3734 25.2863 18.9931C25.2863 18.8592 25.3638 18.7086 25.5193 18.5408C25.6741 18.3736 25.8792 18.2224 26.1346 18.0885C26.3901 17.9546 26.6786 17.8374 27.0001 17.7368C27.3217 17.6362 27.6493 17.5862 27.9821 17.5862L29.6132 17.6195L33.2082 17.519V15.6092ZM28.7477 23.8518C28.9475 23.8518 29.1474 23.8971 29.3472 23.9863C30.1009 24.2994 30.7335 24.4666 31.2443 24.4886C31.7545 24.5339 32.0099 24.6898 32.0099 24.9575C32.0099 25.226 31.777 25.4045 31.3105 25.4938C30.8003 25.6057 30.2008 25.6616 29.5133 25.6616C28.7808 25.6616 28.2924 25.5724 28.0489 25.3932C27.8491 25.2593 27.7379 25.1087 27.7161 24.9409C27.6936 24.7737 27.7267 24.6118 27.816 24.4553C27.904 24.2994 28.0377 24.1595 28.215 24.0363C28.3924 23.9137 28.5697 23.8518 28.7477 23.8518ZM38.6336 17.4184V16.5138C38.5886 16.0002 38.5336 15.7098 38.4668 15.6425C38.3556 15.5312 38.134 15.4753 37.8011 15.4753C37.6238 15.4753 37.2962 15.4806 36.8192 15.4919C36.3421 15.5033 35.6929 15.5199 34.8724 15.5419C34.8499 15.7211 34.8387 15.9669 34.8387 16.2793C34.8387 16.5924 34.8387 16.9947 34.8387 17.4856L38.6336 17.4184ZM34.8387 20.7357C36.7245 20.7357 37.823 20.6351 38.134 20.4339C38.445 20.2334 38.6005 19.5966 38.6005 18.5241C38.0896 18.5241 37.5239 18.5301 36.9025 18.5408C36.2812 18.5528 35.593 18.5694 34.8387 18.5914V20.7357Z" fill="#BE1E2D"/>
<path d="M57.0652 10.8693C56.9552 11.7094 56.8898 12.6042 56.8682 13.5543L58.9424 13.5214C59.9079 13.5214 60.3909 13.8192 60.3909 14.4162C60.3909 14.571 60.2862 14.9855 60.078 15.6589C59.8692 16.333 59.6879 17.0676 59.5348 17.8629C59.4248 18.3934 59.1178 18.6582 58.6132 18.6582C58.4371 18.6582 58.2231 18.6312 57.9711 18.5759C57.7184 18.5205 57.3617 18.4928 56.9009 18.4928C56.8787 19.0674 56.8682 19.6031 56.8682 20.1006C56.8682 20.5974 56.8787 21.1113 56.9009 21.6418C59.3148 21.6418 60.7745 21.6859 61.2798 21.7742C61.8505 21.8408 62.1359 21.9956 62.1359 22.2381C62.1798 22.6585 62.0043 22.9787 61.609 23.1994C61.2137 23.4208 60.709 23.4314 60.0944 23.2324C59.5459 23.1223 58.9143 23.0393 58.2015 22.984C57.488 22.9293 56.6921 22.9009 55.8144 22.9009C53.1805 22.9009 51.4571 23.0999 50.6449 23.4979C50.2502 23.6962 49.9092 23.7957 49.6244 23.7957C49.1414 23.7957 48.8999 23.5757 48.8999 23.1329C48.8999 22.8904 49.0151 22.5978 49.2461 22.2545C49.4765 21.9126 49.6356 21.4428 49.7233 20.8458C49.811 20.2278 49.8548 19.333 49.8548 18.1614C49.8548 16.9905 49.7999 15.6754 49.6906 14.2172C49.646 13.4878 49.6022 12.9139 49.5583 12.4935C49.5145 12.0744 49.4706 11.8089 49.4268 11.6982C49.3613 11.4775 49.3279 11.2007 49.3279 10.8693C49.3279 10.5603 49.4818 10.273 49.7894 10.0081C50.0964 9.74256 50.5133 9.61012 51.0402 9.61012L53.2794 9.64307C54.0471 9.64307 54.7606 9.6378 55.419 9.62659C56.0775 9.61605 56.681 9.59892 57.2302 9.57718L59.9628 9.41113C60.906 9.41113 61.3786 9.66547 61.3786 10.1735C61.3786 10.3725 61.2353 10.5438 60.9505 10.6874C60.6652 10.8311 60.4125 10.9029 60.1932 10.9029C59.9956 10.9029 59.6009 10.8917 59.0079 10.8693C58.4155 10.8475 57.7675 10.8475 57.0652 10.8693ZM53.1144 26.2488C53.1144 26.5585 52.9501 26.89 52.6209 27.2431C52.2694 27.597 51.7203 28.2157 50.9741 29.0993C50.2502 29.9611 49.7894 30.4691 49.5917 30.624C49.3495 30.8441 49.1525 30.8829 48.9987 30.74C48.8449 30.5957 48.911 30.2478 49.1964 29.6956C49.5472 29.0551 49.8496 28.4641 50.1016 27.9225C50.3543 27.3815 50.5683 26.89 50.7437 26.4478C51.0945 25.5642 51.4899 25.1215 51.9291 25.1215C52.1706 25.1215 52.4285 25.2374 52.7027 25.47C52.977 25.702 53.1144 25.9616 53.1144 26.2488ZM55.4852 13.5543C55.4852 13.1122 55.4793 12.6648 55.4688 12.2121C55.457 11.7595 55.4406 11.3121 55.419 10.8693C54.5845 10.8917 53.9156 10.9141 53.4109 10.9358C52.9056 10.9582 52.5653 10.9912 52.3899 11.0353C51.7752 11.1236 51.4022 11.5216 51.2706 12.2286C51.2483 12.4059 51.2267 12.792 51.2051 13.3883C51.1829 13.9853 51.1606 14.7918 51.139 15.8078C51.1168 16.8245 51.1063 17.6811 51.1063 18.3769C51.1063 19.0727 51.1063 19.6196 51.1063 20.0176C51.1063 20.8129 51.1718 21.3103 51.3033 21.5087C51.4355 21.7077 51.6875 21.8072 52.0606 21.8072L55.419 21.6418C55.4629 20.6475 55.4629 19.6314 55.419 18.5923C55.1114 18.6147 54.8044 18.6701 54.4975 18.7577C54.1898 18.8467 53.9261 18.8908 53.7074 18.8908C53.0267 18.8908 52.6864 18.4263 52.6864 17.4986C52.6864 17.0129 52.6864 16.615 52.6864 16.3053C52.6864 15.9963 52.6752 15.7643 52.6536 15.6095L52.5875 14.6481C52.5875 13.8311 52.9933 13.4331 53.8056 13.4548L55.4852 13.5543ZM55.1232 17.432C55.6056 17.432 56.2313 17.3991 56.9998 17.3325C57.7675 17.2225 58.2283 17.0459 58.3821 16.8028C58.5576 16.4931 58.6459 16.0957 58.6459 15.6095C58.6459 15.1015 58.4698 14.7806 58.119 14.6481C57.7898 14.5157 57.1202 14.4491 56.1109 14.4491C55.0787 14.4491 54.453 14.5598 54.2337 14.7806C54.0144 15.002 53.9045 15.4105 53.9045 16.0068C53.9045 16.6038 53.981 16.9905 54.1349 17.1671C54.2887 17.3444 54.6179 17.432 55.1232 17.432ZM58.5798 28.8337C58.5798 29.7173 58.4155 30.1595 58.0863 30.1595C57.8886 30.1595 57.7348 29.9717 57.6255 29.5961C57.2518 28.4476 56.8564 27.4863 56.4401 26.7127C56.1979 26.2712 56.16 25.8838 56.3249 25.5524C56.4892 25.2209 56.8237 25.0556 57.329 25.0556C57.636 25.0556 57.8991 25.1439 58.119 25.3204C58.3167 25.4977 58.4371 26.0387 58.481 26.9446C58.5471 27.8513 58.5798 28.4806 58.5798 28.8337ZM63.7159 25.0226C64.3528 25.0226 64.6709 25.3758 64.6709 26.0828C64.6709 26.8564 64.6546 27.4863 64.6218 27.9719C64.5884 28.4582 64.5505 28.812 64.5066 29.0327C64.4183 29.4524 64.2428 29.6626 63.9797 29.6626C63.7159 29.6626 63.5189 29.4195 63.3867 28.9332C63.2329 28.4252 63.0961 28.0002 62.9757 27.6576C62.8546 27.315 62.7394 27.0553 62.6294 26.8781C62.4102 26.5249 62.3002 26.2152 62.3002 25.9504C62.3002 25.6855 62.4429 25.4647 62.7283 25.2875C63.0136 25.1109 63.3429 25.0226 63.7159 25.0226ZM63.947 15.2444C63.9247 15.5324 63.9136 15.7913 63.9136 16.0233C63.9136 16.2559 63.9136 16.4825 63.9136 16.7033C63.9136 18.0731 64.089 19.0786 64.4405 19.7191C64.8136 20.3602 65.7025 20.7799 67.1078 20.9789C68.5117 21.1772 69.7135 21.2767 70.7129 21.2767C71.7111 21.2767 72.5731 21.1337 73.297 20.8458C73.4725 20.7799 73.6433 20.747 73.8076 20.747C73.9725 20.747 74.0543 20.8458 74.0543 21.0448C74.0543 21.1555 74.0216 21.2939 73.9562 21.4592C73.8901 21.6253 73.8076 21.8019 73.7088 21.9897C73.6099 22.1775 73.4895 22.36 73.3468 22.5366C73.2035 22.7138 73.0555 22.868 72.9024 23.0004C72.5947 23.2436 72.0901 23.3648 71.3878 23.3648C70.6632 23.3648 69.489 23.1882 67.8651 22.835C66.5913 22.5254 65.6148 22.2328 64.9347 21.9567C64.254 21.6806 63.7546 21.3598 63.4365 20.9954C63.1177 20.6303 62.9312 20.2001 62.8768 19.7026C62.8219 19.2051 62.7832 18.5706 62.7616 17.797L62.7944 15.4434C62.7944 13.8311 62.6733 12.5159 62.4324 11.4992C62.3879 11.2785 62.3663 11.1236 62.3663 11.0353C62.3663 10.1069 63.1779 9.64307 64.8025 9.64307C67.8094 9.64307 69.6316 9.73202 70.2685 9.90861C70.8825 10.0635 71.1901 10.3837 71.1901 10.8693C71.1901 11.0683 71.1574 11.2455 71.0913 11.3997C70.9374 11.7759 70.7895 12.2069 70.6468 12.6925C70.5041 13.1788 70.3673 13.7421 70.2351 14.3826C70.1036 15.0237 69.7632 15.3439 69.2147 15.3439C68.9732 15.3222 68.4083 15.2504 67.5188 15.1285C66.6299 15.0072 65.4393 15.0461 63.947 15.2444ZM64.0125 13.9187C64.5394 13.9635 65.0551 13.9905 65.5598 14.0017C66.0644 14.0129 66.52 14.0182 66.9265 14.0182C67.3323 14.0182 67.6837 14.0077 67.9803 13.9853C68.2761 13.9635 68.479 13.9306 68.589 13.8858C68.8082 13.7975 68.9732 13.4878 69.0831 12.9574C69.1925 12.4276 69.2474 11.9855 69.2474 11.6316C69.2474 11.2785 69.1597 11.0465 68.9843 10.9358C68.8082 10.8475 68.5778 10.7757 68.2925 10.7204C68.0071 10.6657 67.6942 10.6268 67.3545 10.6044C67.0142 10.5827 66.6738 10.5767 66.3341 10.5879C65.9931 10.5991 65.6802 10.6374 65.3955 10.7039C65.1101 10.7481 64.8902 10.8087 64.737 10.8864C64.5832 10.9635 64.4621 11.1131 64.3751 11.3338C64.2867 11.5546 64.2212 11.8636 64.1774 12.2616C64.1329 12.6595 64.0786 13.2117 64.0125 13.9187ZM69.6428 24.6246C69.972 24.6246 70.2567 24.7571 70.4989 25.0226C70.7398 25.2434 71.0474 26.0057 71.4205 27.309C71.7713 28.5689 71.9474 29.409 71.9474 29.828C71.9474 30.2478 71.8047 30.4579 71.5193 30.4579C71.2339 30.4579 70.9924 30.2372 70.7948 29.7951C70.5755 29.2429 70.2953 28.6908 69.9556 28.1379C69.6146 27.5858 69.2252 27.0224 68.7866 26.4478C68.4352 26.0057 68.3638 25.5913 68.5726 25.2045C68.7808 24.8184 69.1375 24.6246 69.6428 24.6246Z" fill="#BE1E2D"/>
<path d="M82.5756 40H9.9665C7.96099 40 6.3292 38.3573 6.3292 36.3384C6.3292 34.8447 5.12294 33.6304 3.63915 33.6304C1.63179 33.6304 0 31.9877 0 29.9688V10.0331C0 8.01415 1.63179 6.37147 3.63915 6.37147C5.12294 6.37147 6.3292 5.15714 6.3292 3.66345C6.3292 1.64269 7.96099 0 9.9665 0H82.5756C84.5811 0 86.2129 1.64269 86.2129 3.66345C86.2129 5.15714 87.4211 6.37147 88.9048 6.37147C90.9104 6.37147 92.5421 8.01415 92.5421 10.0331V29.9688C92.5421 31.9877 90.9104 33.6304 88.9048 33.6304C87.4211 33.6304 86.2129 34.8447 86.2129 36.3384C86.2129 38.3573 84.5811 40 82.5756 40ZM9.9665 0.953578C8.48272 0.953578 7.27646 2.16976 7.27646 3.66345C7.27646 5.68236 5.64467 7.32505 3.63915 7.32505C2.15537 7.32505 0.947253 8.53937 0.947253 10.0331V29.9688C0.947253 31.4625 2.15537 32.6768 3.63915 32.6768C5.64467 32.6768 7.27646 34.3195 7.27646 36.3384C7.27646 37.8321 8.48272 39.0464 9.9665 39.0464H82.5756C84.0594 39.0464 85.2657 37.8321 85.2657 36.3384C85.2657 34.3195 86.8975 32.6768 88.9048 32.6768C90.3886 32.6768 91.5949 31.4625 91.5949 29.9688V10.0331C91.5949 8.53937 90.3886 7.32505 88.9048 7.32505C86.8975 7.32505 85.2657 5.68236 85.2657 3.66345C85.2657 2.16976 84.0594 0.953578 82.5756 0.953578L9.9665 0.953578Z" fill="#BE1E2D"/>
</svg>
