<svg width="41" height="48" viewBox="0 0 41 48" fill="none" xmlns="http://www.w3.org/2000/svg">
<path d="M40.907 18.1435C40.6353 15.3419 39.7448 12.5989 38.3345 10.2146C35.6935 5.75316 31.4979 2.78505 26.4737 1.81457C26.1525 0.766604 25.1698 0 24.0076 0H21.6713C20.5303 0 19.5594 0.740856 19.2216 1.76536C16.8144 2.15922 14.464 2.93522 12.3971 4.02772C9.88839 5.3523 7.85683 7.07547 6.36385 9.15502C3.83386 12.6787 3.0047 17.1145 3.96618 21.9838C4.3654 24.0047 3.78901 25.627 1.97241 27.5846C1.95824 27.601 1.9417 27.6174 1.92753 27.6362L0.71805 29.0991C-0.0615196 30.0462 -0.219781 31.3216 0.309378 32.4282C0.838538 33.5348 1.93226 34.2217 3.16302 34.2217H4.45281V38.2494C4.45281 41.5364 7.14814 44.2113 10.4601 44.2113H15.5153C15.6051 44.9194 15.683 45.9345 15.7279 46.5183L15.761 46.9286C15.8082 47.5334 16.3161 48 16.928 48H34.8718C35.2356 48 35.5781 47.8312 35.8002 47.5452C36.0222 47.2592 36.0955 46.8864 36.0033 46.5371C34.749 41.874 34.6332 38.0218 35.6703 35.3894C36.0931 34.5032 36.5585 33.6076 37.0522 32.6628C38.0443 30.7544 39.0719 28.7828 39.8161 26.7337C40.8224 23.9603 41.1909 21.0696 40.9074 18.144L40.907 18.1435ZM20.2678 26.2789C19.1741 26.2789 18.2836 25.3974 18.2836 24.3143V19.2011C18.2836 18.118 19.1742 17.2365 20.2678 17.2365H25.4176C26.5113 17.2365 27.4018 18.118 27.4018 19.2011V24.3143C27.4018 25.3974 26.5112 26.2789 25.4176 26.2789H20.2678ZM21.6734 2.32112H24.0097C24.1372 2.32112 24.2459 2.42896 24.2459 2.55556V14.9084H21.4372V2.55797C21.4372 2.43136 21.5458 2.32352 21.6734 2.32352L21.6734 2.32112ZM37.6161 25.9434C36.924 27.8495 35.9342 29.7532 34.9751 31.5935C34.4885 32.5266 33.9877 33.4902 33.5412 34.4256C33.5294 34.4491 33.52 34.4702 33.5105 34.4936C32.3719 37.3398 32.3294 41.0956 33.3782 45.6695H18.0142C17.9622 45.0271 17.9126 44.4996 17.8606 44.0659C20.1048 43.6275 22.0135 42.202 23.1568 40.854C23.5726 40.364 23.5088 39.6302 23.0151 39.2175C22.5214 38.8049 21.782 38.8682 21.3662 39.3582C20.3788 40.5211 18.5055 41.8785 16.4716 41.8785H10.4691C8.44692 41.8785 6.80282 40.2467 6.80282 38.2399V33.0494C6.80282 32.407 6.27839 31.8889 5.63349 31.8889H3.17438C2.8413 31.8889 2.57909 31.7224 2.43496 31.4223C2.29087 31.1222 2.32866 30.8151 2.53891 30.5619L3.7271 29.1248C5.28382 27.4415 6.9705 25.0572 6.27124 21.529C5.42321 17.241 6.09879 13.5298 8.2768 10.4959C10.5516 7.33097 14.5461 4.99821 19.1028 4.13768V15.0651C17.2863 15.5738 15.9492 17.229 15.9492 19.1936V24.3068C15.9492 26.6723 17.8887 28.5948 20.2722 28.5948H21.6777V29.5466C21.6777 32.0364 19.6343 34.0643 17.1233 34.0643H14.7492C14.2815 32.8921 13.1287 32.0622 11.7846 32.0622C10.0271 32.0622 8.59791 33.4806 8.59791 35.2248C8.59791 36.969 10.0271 38.3874 11.7846 38.3874C13.1287 38.3874 14.2815 37.5551 14.7492 36.3853H17.1233C20.9242 36.3853 24.0161 33.3164 24.0161 29.5463V28.5945H25.4193C27.8028 28.5945 29.7422 26.672 29.7422 24.3065V19.1933C29.7422 17.231 28.4052 15.5735 26.5886 15.0648V4.2052C30.6966 5.15468 34.1243 7.67259 36.3189 11.3839C38.8749 15.7023 39.3591 21.144 37.6157 25.9382L37.6161 25.9434ZM12.6307 35.2299C12.6307 35.6941 12.2504 36.0716 11.7827 36.0716C11.315 36.0716 10.9347 35.6941 10.9347 35.2299C10.9347 34.7657 11.315 34.3883 11.7827 34.3883C12.2504 34.3883 12.6307 34.7658 12.6307 35.2299Z" fill="#83644B"/>
</svg>
