<svg width="48" height="48" viewBox="0 0 48 48" fill="none" xmlns="http://www.w3.org/2000/svg">
<path fill-rule="evenodd" clip-rule="evenodd" d="M16.4434 29.3624H26.6103C27.0286 29.3624 27.3682 29.0229 27.3682 28.6045C27.3682 28.1862 27.0286 27.8467 26.6103 27.8467H16.4434C16.0251 27.8467 15.6855 28.1862 15.6855 28.6045C15.6855 29.0229 16.025 29.3624 16.4434 29.3624Z" fill="#83644B" stroke="#83644B" stroke-width="0.5"/>
<path fill-rule="evenodd" clip-rule="evenodd" d="M22.8418 28.6044V46.851C22.8418 47.2694 23.1813 47.6088 23.5997 47.6088C24.0175 47.6088 24.3575 47.2693 24.3575 46.851V28.6044C24.3575 28.186 24.0175 27.8466 23.5997 27.8466C23.1813 27.8466 22.8418 28.1861 22.8418 28.6044Z" fill="#83644B" stroke="#83644B" stroke-width="0.5"/>
<path fill-rule="evenodd" clip-rule="evenodd" d="M6.61079 0.391113C3.66109 0.391113 1.26562 2.78658 1.26562 5.73676C1.26562 8.68694 3.66109 11.0819 6.61079 11.0819C9.56106 11.0819 11.9565 8.68702 11.9565 5.73676C11.9565 2.7865 9.56106 0.391113 6.61079 0.391113ZM6.61079 1.9069C8.72482 1.9069 10.4407 3.62282 10.4407 5.73676C10.4407 7.8503 8.72482 9.56614 6.61079 9.56614C4.49725 9.56614 2.78141 7.8503 2.78141 5.73676C2.78141 3.62274 4.49733 1.9069 6.61079 1.9069Z" fill="#83644B" stroke="#83644B" stroke-width="0.5"/>
<path fill-rule="evenodd" clip-rule="evenodd" d="M41.3887 0.391113C38.4384 0.391113 36.043 2.78658 36.043 5.73676C36.043 8.68694 38.4384 11.0819 41.3887 11.0819C44.3384 11.0819 46.7339 8.68702 46.7339 5.73676C46.7339 2.7865 44.3384 0.391113 41.3887 0.391113ZM41.3887 1.9069C43.5022 1.9069 45.2181 3.62282 45.2181 5.73676C45.2181 7.8503 43.5022 9.56614 41.3887 9.56614C39.2747 9.56614 37.5588 7.8503 37.5588 5.73676C37.5588 3.62274 39.2747 1.9069 41.3887 1.9069Z" fill="#83644B" stroke="#83644B" stroke-width="0.5"/>
<path fill-rule="evenodd" clip-rule="evenodd" d="M10.7879 21.9572C10.9132 22.2099 11.1729 22.3781 11.4665 22.3781L11.7479 22.3234L18.7266 19.5339C19.8008 19.105 21.021 19.6279 21.4505 20.7021C21.8794 21.7758 21.356 22.996 20.2823 23.4254L11.0659 27.1093C10.1852 27.4614 9.18779 27.1765 8.6234 26.4368C8.42636 26.1786 8.08627 26.0745 7.77812 26.1786C7.47044 26.2826 7.26327 26.5717 7.26327 26.8966V30.7027C7.26327 31.0878 7.55176 31.4111 7.93378 31.4556L14.0682 32.164C15.5178 32.3312 16.6122 33.559 16.6122 35.0187V46.851C16.6122 47.2694 16.9517 47.6089 17.37 47.6089C17.7884 47.6089 18.1279 47.2693 18.1279 46.851V35.0187C18.1279 32.789 16.4565 30.9139 14.2419 30.6583L8.77898 30.0273V28.4448C9.6531 28.8465 10.6798 28.896 11.6282 28.5171L20.8452 24.8332C22.6955 24.093 23.5974 21.9901 22.8577 20.1393C22.118 18.2885 20.0151 17.3866 18.1643 18.1263L11.7798 20.6784L8.11211 14.6754C7.59424 13.8276 6.74992 13.2308 5.77831 13.0252C5.74851 13.0192 5.71871 13.0126 5.68835 13.0065C4.67022 12.7912 3.60865 13.0257 2.77598 13.6496C1.9433 14.2742 1.42036 15.2271 1.3415 16.2649C0.895842 22.1289 0.00206068 33.8814 0.00206068 33.8814C0.000475542 33.9006 0 33.9198 0 33.939C0 36.1662 1.66788 38.0397 3.87939 38.2984L9.34883 39.0047V46.8509C9.34883 47.2693 9.68837 47.6088 10.1067 47.6088C10.525 47.6088 10.8645 47.2693 10.8645 46.8509V38.3383C10.8645 37.9569 10.5816 37.6355 10.2036 37.5865L4.05962 36.7938C2.62016 36.6276 1.53124 35.4159 1.51563 33.9699C1.51563 33.9658 2.85254 16.3796 2.85254 16.3796C2.89851 15.7778 3.20166 15.2246 3.68474 14.8628C4.16828 14.5005 4.78371 14.3646 5.37481 14.4894L5.46421 14.5082C6.02813 14.6274 6.5177 14.974 6.81832 15.4657C7.96477 17.3422 10.2884 21.1458 10.7417 21.8881C10.7571 21.9123 10.7722 21.9355 10.7879 21.9572Z" fill="#83644B" stroke="#83644B" stroke-width="0.5"/>
<path fill-rule="evenodd" clip-rule="evenodd" d="M4.77132 23.0597L7.20673 27.0467C8.12476 28.5493 9.99325 29.1708 11.6288 28.517C12.0173 28.3619 12.2068 27.9203 12.0512 27.5322C11.8961 27.1437 11.4545 26.9542 11.0665 27.1093C10.1176 27.4888 9.03329 27.1285 8.5002 26.2564L6.06488 22.2694C5.8466 21.9127 5.3797 21.8001 5.02304 22.0178C4.66623 22.2361 4.55305 22.703 4.77132 23.0597Z" fill="#83644B" stroke="#83644B" stroke-width="0.5"/>
<path fill-rule="evenodd" clip-rule="evenodd" d="M35.5186 21.8269L28.1801 22.8647C26.2065 23.1436 24.8312 24.9726 25.1101 26.9462C25.3891 28.9192 27.2181 30.295 29.1916 30.0161L38.2172 28.7393C38.5684 28.6897 38.9059 28.5897 39.2207 28.4447V30.0271L33.7577 30.6582C31.5431 30.9138 29.8717 32.7888 29.8717 35.0186V46.8508C29.8717 47.2692 30.2113 47.6087 30.6296 47.6087C31.0479 47.6087 31.3875 47.2692 31.3875 46.8508V35.0186C31.3875 33.5589 32.4818 32.331 33.9314 32.1638L40.0638 31.4554H40.0623C40.4418 31.414 40.7363 31.0926 40.7363 30.7025V26.8959C40.7363 26.571 40.5291 26.2825 40.2214 26.1785C39.9138 26.0739 39.5737 26.178 39.3762 26.4361C39.0442 26.8707 38.5526 27.1612 38.0049 27.2385L28.9793 28.5148C27.8339 28.677 26.7728 27.8787 26.6111 26.7333C26.449 25.5883 27.2472 24.5273 28.3922 24.3651L36.0828 23.2778L35.9787 23.2848L36.6255 22.922L40.7261 16.2096C41.2506 15.3517 42.2111 14.8591 43.2141 14.9348C43.2283 14.9359 43.2419 14.9368 43.256 14.9379C44.6071 15.0399 45.6696 16.1343 45.7313 17.4874L46.4836 33.9549C46.4755 35.4071 45.3842 36.6263 43.9396 36.7935L37.9235 37.4883C37.545 37.5317 37.258 37.8495 37.2529 38.2305L37.1347 46.8402C37.1291 47.2586 37.4641 47.6027 37.882 47.6087C38.3004 47.6142 38.6445 47.2793 38.6505 46.8609L38.7591 38.9171L44.1134 38.2992C46.328 38.0435 47.9994 36.1679 47.9994 33.9388C47.9994 33.9271 47.9989 33.9155 47.9984 33.9039C47.9984 33.9039 47.4961 22.9074 47.2455 17.4182C47.1485 15.2991 45.4852 13.5858 43.3702 13.4266C43.356 13.4256 43.3419 13.4241 43.3282 13.423C41.7579 13.3048 40.2537 14.0758 39.4327 15.4193L35.5186 21.8269Z" fill="#83644B" stroke="#83644B" stroke-width="0.5"/>
<path fill-rule="evenodd" clip-rule="evenodd" d="M31.1582 2.66476C31.1582 2.06201 30.9186 1.48343 30.4922 1.05703C30.0658 0.630549 29.4878 0.391113 28.8845 0.391113H18.3108C17.0548 0.391113 16.0371 1.40925 16.0371 2.66476V12.2971C16.0371 12.7922 16.3261 13.2419 16.7768 13.447C17.2275 13.6522 17.7565 13.5749 18.1299 13.2494C18.859 12.6144 19.8862 11.719 20.4586 11.2198C20.5971 11.0996 20.7739 11.0334 20.9568 11.0334H28.8844C29.4877 11.0334 30.0658 10.7939 30.4922 10.3675C30.9186 9.94102 31.1581 9.36253 31.1581 8.75978V2.66476H31.1582ZM17.5529 11.7418V2.66476C17.5529 2.24644 17.892 1.9069 18.3108 1.9069H28.8844C29.0855 1.9069 29.2785 1.98671 29.4205 2.12922C29.5625 2.27117 29.6424 2.46368 29.6424 2.66476V8.75978C29.6424 8.96085 29.5625 9.15337 29.4205 9.29532C29.2786 9.43782 29.0855 9.51763 28.8844 9.51763H20.9569C20.4077 9.51763 19.8772 9.71617 19.4628 10.0769L17.5529 11.7418Z" fill="#83644B" stroke="#83644B" stroke-width="0.5"/>
<path fill-rule="evenodd" clip-rule="evenodd" d="M20.2227 5.08602H27.0902C27.5086 5.08602 27.8481 4.74649 27.8481 4.32817C27.8481 3.90985 27.5086 3.57031 27.0902 3.57031H20.2227C19.8044 3.57031 19.4648 3.90985 19.4648 4.32817C19.4648 4.74649 19.8043 5.08602 20.2227 5.08602Z" fill="#83644B" stroke="#83644B" stroke-width="0.5"/>
<path fill-rule="evenodd" clip-rule="evenodd" d="M20.2227 7.84982H23.5994C24.0172 7.84982 24.3572 7.51028 24.3572 7.09196C24.3572 6.67356 24.0172 6.33411 23.5994 6.33411H20.2227C19.8044 6.33411 19.4648 6.67364 19.4648 7.09196C19.4648 7.51028 19.8043 7.84982 20.2227 7.84982Z" fill="#83644B" stroke="#83644B" stroke-width="0.5"/>
<path fill-rule="evenodd" clip-rule="evenodd" d="M35.9407 29.0617L38.2179 28.7394C39.2866 28.5883 40.2314 27.9674 40.7943 27.0468L43.2296 23.0598C43.4479 22.703 43.3347 22.2362 42.9779 22.0179C42.6212 21.8001 42.1544 21.9128 41.9361 22.2696L39.5008 26.2566C39.1744 26.7906 38.6256 27.1509 38.0057 27.2388L35.7285 27.5607C35.3141 27.6193 35.0251 28.0033 35.0837 28.4176C35.1424 28.8313 35.5264 29.1203 35.9407 29.0617Z" fill="#83644B" stroke="#83644B" stroke-width="0.5"/>
</svg>
