<svg width="48" height="38" viewBox="0 0 48 38" fill="none" xmlns="http://www.w3.org/2000/svg">
<path d="M46.9809 4.12466L37.5523 0.353189C37.3271 0.262967 37.0759 0.262967 36.8508 0.353189L27.4221 4.12466C27.2473 4.19471 27.0975 4.31548 26.992 4.47143C26.8864 4.62737 26.83 4.81134 26.83 4.99964V14.7451C26.8349 16.5358 27.3008 18.295 28.183 19.8533C29.0652 21.4116 30.3339 22.7164 31.8668 23.642L36.7169 26.5517C36.8633 26.6395 37.0308 26.6858 37.2015 26.6858C37.3722 26.6858 37.5397 26.6395 37.6862 26.5517L41.9159 24.0135V34.5736C41.9154 34.9836 41.7523 35.3766 41.4624 35.6665C41.1725 35.9564 40.7795 36.1194 40.3696 36.1199H3.86173C3.45177 36.1194 3.05876 35.9564 2.76888 35.6665C2.479 35.3766 2.31592 34.9836 2.31542 34.5736V13.4854H24.0014C24.2514 13.4854 24.4913 13.3861 24.6681 13.2093C24.8449 13.0325 24.9442 12.7926 24.9442 12.5426C24.9442 12.2925 24.8449 12.0527 24.6681 11.8759C24.4913 11.699 24.2514 11.5997 24.0014 11.5997H2.31542V9.37455C2.31592 8.96459 2.479 8.57158 2.76888 8.2817C3.05876 7.99182 3.45177 7.82874 3.86173 7.82824H24.0014C24.2514 7.82824 24.4913 7.72891 24.6681 7.55208C24.8449 7.37526 24.9442 7.13544 24.9442 6.88538C24.9442 6.63531 24.8449 6.39549 24.6681 6.21867C24.4913 6.04185 24.2514 5.94251 24.0014 5.94251H3.86173C2.95165 5.94301 2.07898 6.30476 1.43546 6.94828C0.791936 7.5918 0.430187 8.46447 0.429688 9.37455V34.568C0.430187 35.478 0.791936 36.3507 1.43546 36.9942C2.07898 37.6378 2.95165 37.9995 3.86173 38H40.3696C41.2796 37.9995 42.1523 37.6378 42.7958 36.9942C43.4393 36.3507 43.8011 35.478 43.8016 34.568V22.7255C44.9761 21.7517 45.9226 20.532 46.5743 19.1524C47.226 17.7729 47.5669 16.2671 47.5731 14.7413V4.99964C47.573 4.81134 47.5166 4.62737 47.4111 4.47143C47.3055 4.31548 47.1557 4.19471 46.9809 4.12466ZM45.6873 14.7451C45.6835 16.2103 45.3021 17.6498 44.5801 18.9248C43.8581 20.1997 42.8197 21.2672 41.5651 22.0241L37.2015 24.6433L32.8379 22.0241C31.5834 21.2672 30.545 20.1997 29.8229 18.9248C29.1009 17.6498 28.7196 16.2103 28.7157 14.7451V5.63702L37.2015 2.2427L45.6873 5.63702V14.7451Z" fill="#83644B"/>
<path d="M34.0973 12.037C34.0097 11.9493 33.9058 11.8798 33.7914 11.8323C33.6769 11.7848 33.5543 11.7603 33.4304 11.7602C33.3065 11.7601 33.1838 11.7844 33.0693 11.8318C32.9548 11.8791 32.8508 11.9485 32.7631 12.036C32.6754 12.1236 32.6059 12.2275 32.5584 12.342C32.5109 12.4564 32.4864 12.579 32.4863 12.7029C32.4862 12.8268 32.5106 12.9495 32.5579 13.064C32.6052 13.1785 32.6746 13.2825 32.7622 13.3702L35.2777 15.8839C35.4546 16.0606 35.6943 16.1599 35.9443 16.1599C36.1944 16.1599 36.4341 16.0606 36.611 15.8839L41.6402 10.8546C41.817 10.6776 41.9162 10.4376 41.9161 10.1874C41.9159 9.93715 41.8163 9.69727 41.6393 9.52047C41.4622 9.34368 41.2222 9.24445 40.972 9.24463C40.7218 9.24481 40.4819 9.34437 40.3051 9.52141L35.9434 13.885L34.0973 12.037Z" fill="#83644B"/>
<path d="M7.0288 30.4585C6.77874 30.4585 6.53892 30.5578 6.3621 30.7347C6.18528 30.9115 6.08594 31.1513 6.08594 31.4014C6.08594 31.6514 6.18528 31.8913 6.3621 32.0681C6.53892 32.2449 6.77874 32.3442 7.0288 32.3442H14.5717C14.8218 32.3442 15.0616 32.2449 15.2385 32.0681C15.4153 31.8913 15.5146 31.6514 15.5146 31.4014C15.5146 31.1513 15.4153 30.9115 15.2385 30.7347C15.0616 30.5578 14.8218 30.4585 14.5717 30.4585H7.0288Z" fill="#83644B"/>
</svg>
