<svg width="48" height="64" viewBox="0 0 48 64" fill="none" xmlns="http://www.w3.org/2000/svg">
<path d="M29.3339 8.5332H18.6673C18.0781 8.5332 17.6006 9.01077 17.6006 9.59987C17.6006 10.189 18.0781 10.6665 18.6673 10.6665H29.3339C29.923 10.6665 30.4006 10.189 30.4006 9.59987C30.4006 9.01077 29.923 8.5332 29.3339 8.5332Z" fill="#83644B"/>
<path d="M12.3235 56.3787L8.69683 58.192C7.61292 58.7322 6.92946 59.8407 6.93363 61.0518V61.8667C6.93363 63.0449 7.88876 64 9.06697 64H38.9336C40.1118 64 41.067 63.0449 41.067 61.8667V61.0518C41.071 59.8387 40.3851 58.7289 39.2984 58.1899L35.6771 56.3766C42.1134 51.3675 47.467 40.0598 47.467 30.9334C47.6009 26.1742 45.6067 21.603 42.027 18.464C42.0131 18.4491 41.9982 18.4384 41.9843 18.4246C39.7356 16.4772 37.2991 14.7578 34.7107 13.2918C34.8258 12.1748 35.1359 11.0866 35.627 10.0768C36.2864 8.68124 37.1981 7.41953 38.316 6.35523C39.9814 6.12593 41.1837 4.64443 41.0652 2.96751C40.9467 1.29058 39.5481 -0.00713551 37.867 2.95263e-05H10.1336C8.45361 -0.00425314 7.05773 1.29424 6.94072 2.97018C6.8237 4.64613 8.02559 6.126 9.6899 6.35523C10.808 7.41942 11.7197 8.68116 12.379 10.0768C12.8692 11.0868 13.1782 12.1749 13.292 13.2918C10.7035 14.7576 8.26698 16.4769 6.01843 18.4246C6.00457 18.4384 5.98963 18.4491 5.97577 18.464C2.39529 21.6026 0.400205 26.1739 0.533634 30.9334C0.533634 40.0598 5.88723 51.3675 12.3235 56.3787ZM38.9336 61.0518L38.9336 61.8667H9.06696L9.06697 61.0518C9.06567 60.6474 9.29447 60.2776 9.65683 60.0982L14.652 57.6H33.3486L38.3438 60.0982C38.7061 60.2776 38.9349 60.6474 38.9336 61.0518ZM33.2963 55.4667H14.7043C11.4851 53.4166 8.4323 49.4112 6.20403 44.8H25.067C25.6561 44.8 26.1336 44.3225 26.1336 43.7334C26.1336 43.1443 25.6561 42.6667 25.067 42.6667H5.25683C4.31711 40.4074 3.61017 38.0582 3.14697 35.6555C3.66583 36.03 4.1322 36.4724 4.53363 36.9707C5.56028 38.478 7.2443 39.4052 9.06697 39.4667C10.892 39.4059 12.5782 38.4768 13.6046 36.9664C14.5902 35.84 15.212 35.2 16.523 35.2C17.8339 35.2 18.4654 35.84 19.4531 36.9696C20.4799 38.4785 22.1655 39.4063 23.9896 39.4667C25.8137 39.4063 27.4993 38.4785 28.5262 36.9696C29.515 35.84 30.1379 35.2 31.4563 35.2C32.7747 35.2 33.3987 35.84 34.3864 36.9696C35.3728 38.525 37.0865 39.4675 38.9283 39.4675C40.7701 39.4675 42.4838 38.525 43.4702 36.9696C43.8716 36.4719 44.338 36.0302 44.8568 35.6566C44.3925 38.059 43.6845 40.4079 42.7438 42.6667H29.3336C28.7445 42.6667 28.267 43.1443 28.267 43.7334C28.267 44.3225 28.7445 44.8 29.3336 44.8H41.7966C39.5736 49.4112 36.5155 53.4166 33.2963 55.4667ZM2.66697 30.9334C2.652 29.3294 2.88258 27.7326 3.3507 26.1984C3.78239 26.5496 4.17827 26.9426 4.53257 27.3718C5.55871 28.88 7.24374 29.8071 9.06697 29.8667C10.892 29.8059 12.5782 28.8768 13.6046 27.3664C14.5902 26.24 15.212 25.6 16.523 25.6C17.8339 25.6 18.4654 26.24 19.4531 27.3696C20.4799 28.8785 22.1655 29.8063 23.9896 29.8667C25.8137 29.8063 27.4993 28.8785 28.5262 27.3696C29.515 26.24 30.1379 25.6 31.4563 25.6C32.7747 25.6 33.3987 26.24 34.3864 27.3696C35.3729 28.9246 37.0863 29.8667 38.9278 29.8667C40.7692 29.8667 42.4826 28.9246 43.4691 27.3696C43.8227 26.9402 44.2182 26.5471 44.6499 26.1963C45.1182 27.7312 45.3488 29.3287 45.3336 30.9334C45.3336 31.68 45.2803 32.4395 45.2046 33.2128C43.8642 33.6072 42.6909 34.4319 41.8659 35.5595C40.9987 36.5515 40.3128 37.3334 38.923 37.3334C37.6046 37.3334 36.9816 36.6934 35.9928 35.5638C35.0084 34.0091 33.2964 33.0669 31.4563 33.0669C29.6162 33.0669 27.9042 34.0091 26.9198 35.5638C25.932 36.6934 25.3091 37.3334 23.9896 37.3334C22.6702 37.3334 22.0483 36.6934 21.0595 35.5638C20.0327 34.0549 18.3471 33.1271 16.523 33.0667C14.7024 33.1275 13.0207 34.0552 11.9982 35.5627C11.0094 36.6934 10.3854 37.3334 9.06697 37.3334C7.74857 37.3334 7.12457 36.6934 6.13577 35.5648C5.31067 34.4368 4.13692 33.6121 2.79603 33.2182C2.7203 32.4395 2.66697 31.68 2.66697 30.9334ZM7.13417 20.2667H18.667C19.2561 20.2667 19.7336 19.7891 19.7336 19.2C19.7336 18.6109 19.2561 18.1334 18.667 18.1334H9.72937C11.2568 17.0272 12.9411 15.9947 14.6979 14.9334H33.3027C35.0595 15.9947 36.7438 17.0272 38.2712 18.1334H22.9336C22.3445 18.1334 21.867 18.6109 21.867 19.2C21.867 19.7891 22.3445 20.2667 22.9336 20.2667H40.8664C42.0721 21.3902 43.0777 22.7108 43.8403 24.1718C43.0937 24.6629 42.4282 25.2675 41.868 25.9638C40.8739 27.0934 40.2499 27.7334 38.923 27.7334C37.596 27.7334 36.9816 27.0934 35.9928 25.9638C35.0084 24.4091 33.2964 23.4669 31.4563 23.4669C29.6162 23.4669 27.9042 24.4091 26.9198 25.9638C25.932 27.0934 25.3091 27.7334 23.9896 27.7334C22.6702 27.7334 22.0483 27.0934 21.0595 25.9638C20.0327 24.4549 18.3471 23.5271 16.523 23.4667C14.7024 23.5275 13.0207 24.4552 11.9982 25.9627C11.0094 27.0934 10.3854 27.7334 9.06697 27.7334C7.74857 27.7334 7.12563 27.0934 6.1379 25.967C5.578 25.2691 4.91213 24.6633 4.16457 24.1718C4.92584 22.7111 5.93003 21.3906 7.13417 20.2667ZM33.707 9.12323C33.1442 10.2808 32.7756 11.5229 32.6158 12.8H15.3848C15.225 11.5229 14.8564 10.2808 14.2936 9.12323C13.8157 8.16323 13.2467 7.25131 12.5944 6.40003H35.4062C34.754 7.25131 34.1849 8.16323 33.707 9.12323ZM10.1336 2.13336H37.867C38.4561 2.13336 38.9336 2.61093 38.9336 3.20003C38.9336 3.78913 38.4561 4.2667 37.867 4.2667H10.1336C9.54453 4.2667 9.06697 3.78913 9.06697 3.20003C9.06697 2.61093 9.54453 2.13336 10.1336 2.13336Z" fill="#83644B"/>
</svg>
